<mxfile host="app.diagrams.net" modified="2023-06-20T05:21:23.701Z" agent="Mozilla/5.0 (Windows NT 10.0; Win64; x64) AppleWebKit/537.36 (KHTML, like Gecko) Chrome/114.0.0.0 Safari/537.36" etag="VzifCgQz30ABJZ30mZtw" version="21.5.0" type="device">
  <diagram name="Halaman-1" id="J6C14c8KcGc6xIuZKuOp">
    <mxGraphModel dx="1793" dy="911" grid="1" gridSize="10" guides="1" tooltips="1" connect="1" arrows="1" fold="1" page="1" pageScale="1" pageWidth="827" pageHeight="1169" math="0" shadow="0">
      <root>
        <mxCell id="0" />
        <mxCell id="1" parent="0" />
        <mxCell id="4_jwAogag72ptFIWXUfj-1" value="Activity Diagram Mengelola Data Grouping Produk" style="swimlane;childLayout=stackLayout;resizeParent=1;resizeParentMax=0;startSize=20;html=1;" vertex="1" parent="1">
          <mxGeometry x="60" y="40" width="640" height="960" as="geometry" />
        </mxCell>
        <mxCell id="4_jwAogag72ptFIWXUfj-2" value="Owner Apotek" style="swimlane;startSize=20;html=1;" vertex="1" parent="4_jwAogag72ptFIWXUfj-1">
          <mxGeometry y="20" width="410" height="940" as="geometry" />
        </mxCell>
        <mxCell id="4_jwAogag72ptFIWXUfj-10" value="" style="edgeStyle=orthogonalEdgeStyle;rounded=0;orthogonalLoop=1;jettySize=auto;html=1;" edge="1" parent="4_jwAogag72ptFIWXUfj-2" source="4_jwAogag72ptFIWXUfj-7" target="4_jwAogag72ptFIWXUfj-8">
          <mxGeometry relative="1" as="geometry" />
        </mxCell>
        <mxCell id="4_jwAogag72ptFIWXUfj-7" value="" style="ellipse;html=1;shape=endState;fillColor=#000000;strokeColor=#ff0000;" vertex="1" parent="4_jwAogag72ptFIWXUfj-2">
          <mxGeometry x="154.99999999999955" y="30" width="30" height="30" as="geometry" />
        </mxCell>
        <mxCell id="4_jwAogag72ptFIWXUfj-8" value="Memilih menu grouping produk" style="rounded=1;whiteSpace=wrap;html=1;arcSize=40;fontColor=#000000;fillColor=default;strokeColor=default;" vertex="1" parent="4_jwAogag72ptFIWXUfj-2">
          <mxGeometry x="117.5" y="80" width="105" height="30" as="geometry" />
        </mxCell>
        <mxCell id="4_jwAogag72ptFIWXUfj-15" value="Menekan checkbox" style="rounded=1;whiteSpace=wrap;html=1;arcSize=40;fontColor=#000000;fillColor=default;strokeColor=default;" vertex="1" parent="4_jwAogag72ptFIWXUfj-2">
          <mxGeometry x="15" y="170" width="90" height="40" as="geometry" />
        </mxCell>
        <mxCell id="4_jwAogag72ptFIWXUfj-14" value="Menekan tombol edit data" style="rounded=1;whiteSpace=wrap;html=1;arcSize=40;fontColor=#000000;fillColor=default;strokeColor=default;" vertex="1" parent="4_jwAogag72ptFIWXUfj-2">
          <mxGeometry x="115" y="170" width="100" height="40" as="geometry" />
        </mxCell>
        <mxCell id="4_jwAogag72ptFIWXUfj-13" value="Menekan tombol tambah data" style="rounded=1;whiteSpace=wrap;html=1;arcSize=40;fontColor=#000000;fillColor=default;strokeColor=default;" vertex="1" parent="4_jwAogag72ptFIWXUfj-2">
          <mxGeometry x="225" y="170" width="100" height="40" as="geometry" />
        </mxCell>
        <mxCell id="4_jwAogag72ptFIWXUfj-26" value="Melengkapi form tambah data" style="rounded=1;whiteSpace=wrap;html=1;arcSize=40;fontColor=#000000;fillColor=default;strokeColor=default;" vertex="1" parent="4_jwAogag72ptFIWXUfj-2">
          <mxGeometry x="225" y="240" width="100" height="40" as="geometry" />
        </mxCell>
        <mxCell id="4_jwAogag72ptFIWXUfj-28" value="Menekan tombol back" style="rounded=1;whiteSpace=wrap;html=1;arcSize=40;fontColor=#000000;fillColor=default;strokeColor=default;" vertex="1" parent="4_jwAogag72ptFIWXUfj-2">
          <mxGeometry x="185" y="310" width="90" height="40" as="geometry" />
        </mxCell>
        <mxCell id="4_jwAogag72ptFIWXUfj-29" value="Menekan tombol submit" style="rounded=1;whiteSpace=wrap;html=1;arcSize=40;fontColor=#000000;fillColor=default;strokeColor=default;" vertex="1" parent="4_jwAogag72ptFIWXUfj-2">
          <mxGeometry x="285" y="310" width="100" height="40" as="geometry" />
        </mxCell>
        <mxCell id="4_jwAogag72ptFIWXUfj-48" value="Melengkapi form edit data" style="rounded=1;whiteSpace=wrap;html=1;arcSize=40;fontColor=#000000;fillColor=default;strokeColor=default;" vertex="1" parent="4_jwAogag72ptFIWXUfj-2">
          <mxGeometry x="225" y="500" width="100" height="40" as="geometry" />
        </mxCell>
        <mxCell id="4_jwAogag72ptFIWXUfj-50" value="Menekan tombol back" style="rounded=1;whiteSpace=wrap;html=1;arcSize=40;fontColor=#000000;fillColor=default;strokeColor=default;" vertex="1" parent="4_jwAogag72ptFIWXUfj-2">
          <mxGeometry x="185" y="570" width="90" height="40" as="geometry" />
        </mxCell>
        <mxCell id="4_jwAogag72ptFIWXUfj-51" value="Menekan tombol submit" style="rounded=1;whiteSpace=wrap;html=1;arcSize=40;fontColor=#000000;fillColor=default;strokeColor=default;" vertex="1" parent="4_jwAogag72ptFIWXUfj-2">
          <mxGeometry x="285" y="570" width="100" height="40" as="geometry" />
        </mxCell>
        <mxCell id="4_jwAogag72ptFIWXUfj-52" value="" style="endArrow=none;html=1;rounded=0;exitX=0.5;exitY=1;exitDx=0;exitDy=0;" edge="1" parent="4_jwAogag72ptFIWXUfj-2">
          <mxGeometry width="50" height="50" relative="1" as="geometry">
            <mxPoint x="275" y="540" as="sourcePoint" />
            <mxPoint x="275" y="550" as="targetPoint" />
          </mxGeometry>
        </mxCell>
        <mxCell id="4_jwAogag72ptFIWXUfj-53" value="" style="endArrow=none;html=1;rounded=0;" edge="1" parent="4_jwAogag72ptFIWXUfj-2">
          <mxGeometry width="50" height="50" relative="1" as="geometry">
            <mxPoint x="230" y="550" as="sourcePoint" />
            <mxPoint x="330" y="550" as="targetPoint" />
          </mxGeometry>
        </mxCell>
        <mxCell id="4_jwAogag72ptFIWXUfj-54" value="" style="endArrow=classic;html=1;rounded=0;entryX=0.5;entryY=0;entryDx=0;entryDy=0;" edge="1" parent="4_jwAogag72ptFIWXUfj-2" target="4_jwAogag72ptFIWXUfj-50">
          <mxGeometry width="50" height="50" relative="1" as="geometry">
            <mxPoint x="230" y="550" as="sourcePoint" />
            <mxPoint x="300" y="490" as="targetPoint" />
          </mxGeometry>
        </mxCell>
        <mxCell id="4_jwAogag72ptFIWXUfj-55" value="" style="endArrow=classic;html=1;rounded=0;entryX=0.45;entryY=0.035;entryDx=0;entryDy=0;entryPerimeter=0;" edge="1" parent="4_jwAogag72ptFIWXUfj-2" target="4_jwAogag72ptFIWXUfj-51">
          <mxGeometry width="50" height="50" relative="1" as="geometry">
            <mxPoint x="330" y="550" as="sourcePoint" />
            <mxPoint x="300" y="490" as="targetPoint" />
          </mxGeometry>
        </mxCell>
        <mxCell id="4_jwAogag72ptFIWXUfj-66" value="Menekan tombol hapus" style="rounded=1;whiteSpace=wrap;html=1;arcSize=40;fontColor=#000000;fillColor=default;strokeColor=default;" vertex="1" parent="4_jwAogag72ptFIWXUfj-2">
          <mxGeometry x="285" y="750" width="100" height="40" as="geometry" />
        </mxCell>
        <mxCell id="4_jwAogag72ptFIWXUfj-3" value="Sistem" style="swimlane;startSize=20;html=1;" vertex="1" parent="4_jwAogag72ptFIWXUfj-1">
          <mxGeometry x="410" y="20" width="230" height="940" as="geometry" />
        </mxCell>
        <mxCell id="4_jwAogag72ptFIWXUfj-11" value="Menampilkan grouping produk" style="rounded=1;whiteSpace=wrap;html=1;arcSize=40;fontColor=#000000;fillColor=default;strokeColor=default;" vertex="1" parent="4_jwAogag72ptFIWXUfj-3">
          <mxGeometry x="60" y="80" width="105" height="30" as="geometry" />
        </mxCell>
        <mxCell id="4_jwAogag72ptFIWXUfj-24" value="Menampilkan halaman form tambah data" style="rounded=1;whiteSpace=wrap;html=1;arcSize=40;fontColor=#000000;fillColor=default;strokeColor=default;" vertex="1" parent="4_jwAogag72ptFIWXUfj-3">
          <mxGeometry x="47.5" y="170" width="130" height="40" as="geometry" />
        </mxCell>
        <mxCell id="4_jwAogag72ptFIWXUfj-35" value="" style="shape=line;html=1;strokeWidth=6;strokeColor=default;rotation=90;" vertex="1" parent="4_jwAogag72ptFIWXUfj-3">
          <mxGeometry x="-5" y="325" width="80" height="10" as="geometry" />
        </mxCell>
        <mxCell id="4_jwAogag72ptFIWXUfj-41" style="edgeStyle=orthogonalEdgeStyle;rounded=0;orthogonalLoop=1;jettySize=auto;html=1;entryX=1;entryY=0.5;entryDx=0;entryDy=0;" edge="1" parent="4_jwAogag72ptFIWXUfj-3" source="4_jwAogag72ptFIWXUfj-39" target="4_jwAogag72ptFIWXUfj-11">
          <mxGeometry relative="1" as="geometry">
            <Array as="points">
              <mxPoint x="185" y="305" />
              <mxPoint x="185" y="95" />
            </Array>
          </mxGeometry>
        </mxCell>
        <mxCell id="4_jwAogag72ptFIWXUfj-39" value="Menyimpan data" style="rounded=1;whiteSpace=wrap;html=1;arcSize=40;fontColor=#000000;fillColor=default;strokeColor=default;" vertex="1" parent="4_jwAogag72ptFIWXUfj-3">
          <mxGeometry x="60" y="285" width="90" height="40" as="geometry" />
        </mxCell>
        <mxCell id="4_jwAogag72ptFIWXUfj-75" style="edgeStyle=orthogonalEdgeStyle;rounded=0;orthogonalLoop=1;jettySize=auto;html=1;entryX=1;entryY=0.5;entryDx=0;entryDy=0;" edge="1" parent="4_jwAogag72ptFIWXUfj-3" source="4_jwAogag72ptFIWXUfj-40" target="4_jwAogag72ptFIWXUfj-72">
          <mxGeometry relative="1" as="geometry">
            <Array as="points">
              <mxPoint x="210" y="355" />
              <mxPoint x="210" y="905" />
            </Array>
          </mxGeometry>
        </mxCell>
        <mxCell id="4_jwAogag72ptFIWXUfj-40" value="Menampilkan notif berhasil tambah data" style="rounded=1;whiteSpace=wrap;html=1;arcSize=40;fontColor=#000000;fillColor=default;strokeColor=default;" vertex="1" parent="4_jwAogag72ptFIWXUfj-3">
          <mxGeometry x="60" y="335" width="90" height="40" as="geometry" />
        </mxCell>
        <mxCell id="4_jwAogag72ptFIWXUfj-43" value="" style="endArrow=classic;html=1;rounded=0;entryX=0;entryY=0.5;entryDx=0;entryDy=0;exitX=0.18;exitY=0.3;exitDx=0;exitDy=0;exitPerimeter=0;" edge="1" parent="4_jwAogag72ptFIWXUfj-3" source="4_jwAogag72ptFIWXUfj-35" target="4_jwAogag72ptFIWXUfj-39">
          <mxGeometry width="50" height="50" relative="1" as="geometry">
            <mxPoint x="-70" y="250" as="sourcePoint" />
            <mxPoint x="-20" y="200" as="targetPoint" />
          </mxGeometry>
        </mxCell>
        <mxCell id="4_jwAogag72ptFIWXUfj-44" value="" style="endArrow=classic;html=1;rounded=0;entryX=0;entryY=0.5;entryDx=0;entryDy=0;exitX=0.811;exitY=0.259;exitDx=0;exitDy=0;exitPerimeter=0;" edge="1" parent="4_jwAogag72ptFIWXUfj-3" source="4_jwAogag72ptFIWXUfj-35" target="4_jwAogag72ptFIWXUfj-40">
          <mxGeometry width="50" height="50" relative="1" as="geometry">
            <mxPoint x="-40" y="290" as="sourcePoint" />
            <mxPoint x="10" y="240" as="targetPoint" />
          </mxGeometry>
        </mxCell>
        <mxCell id="4_jwAogag72ptFIWXUfj-45" value="Menampilkan halaman form edit data" style="rounded=1;whiteSpace=wrap;html=1;arcSize=40;fontColor=#000000;fillColor=default;strokeColor=default;" vertex="1" parent="4_jwAogag72ptFIWXUfj-3">
          <mxGeometry x="47.5" y="425" width="130" height="40" as="geometry" />
        </mxCell>
        <mxCell id="4_jwAogag72ptFIWXUfj-57" value="" style="shape=line;html=1;strokeWidth=6;strokeColor=default;rotation=90;" vertex="1" parent="4_jwAogag72ptFIWXUfj-3">
          <mxGeometry x="-5" y="590" width="80" height="10" as="geometry" />
        </mxCell>
        <mxCell id="4_jwAogag72ptFIWXUfj-63" style="edgeStyle=orthogonalEdgeStyle;rounded=0;orthogonalLoop=1;jettySize=auto;html=1;entryX=1;entryY=0.5;entryDx=0;entryDy=0;" edge="1" parent="4_jwAogag72ptFIWXUfj-3" source="4_jwAogag72ptFIWXUfj-58" target="4_jwAogag72ptFIWXUfj-11">
          <mxGeometry relative="1" as="geometry">
            <Array as="points">
              <mxPoint x="185" y="570" />
              <mxPoint x="185" y="95" />
            </Array>
          </mxGeometry>
        </mxCell>
        <mxCell id="4_jwAogag72ptFIWXUfj-58" value="Menyimpan data" style="rounded=1;whiteSpace=wrap;html=1;arcSize=40;fontColor=#000000;fillColor=default;strokeColor=default;" vertex="1" parent="4_jwAogag72ptFIWXUfj-3">
          <mxGeometry x="60" y="550" width="90" height="40" as="geometry" />
        </mxCell>
        <mxCell id="4_jwAogag72ptFIWXUfj-60" value="" style="endArrow=classic;html=1;rounded=0;entryX=0;entryY=0.5;entryDx=0;entryDy=0;exitX=0.18;exitY=0.3;exitDx=0;exitDy=0;exitPerimeter=0;" edge="1" parent="4_jwAogag72ptFIWXUfj-3" source="4_jwAogag72ptFIWXUfj-57" target="4_jwAogag72ptFIWXUfj-58">
          <mxGeometry width="50" height="50" relative="1" as="geometry">
            <mxPoint x="-70" y="515" as="sourcePoint" />
            <mxPoint x="-20" y="465" as="targetPoint" />
          </mxGeometry>
        </mxCell>
        <mxCell id="4_jwAogag72ptFIWXUfj-74" style="edgeStyle=orthogonalEdgeStyle;rounded=0;orthogonalLoop=1;jettySize=auto;html=1;entryX=1;entryY=0.5;entryDx=0;entryDy=0;" edge="1" parent="4_jwAogag72ptFIWXUfj-3" source="4_jwAogag72ptFIWXUfj-59" target="4_jwAogag72ptFIWXUfj-72">
          <mxGeometry relative="1" as="geometry">
            <Array as="points">
              <mxPoint x="210" y="620" />
              <mxPoint x="210" y="905" />
            </Array>
          </mxGeometry>
        </mxCell>
        <mxCell id="4_jwAogag72ptFIWXUfj-59" value="Menampilkan notif berhasil ubah data" style="rounded=1;whiteSpace=wrap;html=1;arcSize=40;fontColor=#000000;fillColor=default;strokeColor=default;" vertex="1" parent="4_jwAogag72ptFIWXUfj-3">
          <mxGeometry x="60" y="600" width="90" height="40" as="geometry" />
        </mxCell>
        <mxCell id="4_jwAogag72ptFIWXUfj-61" value="" style="endArrow=classic;html=1;rounded=0;entryX=0;entryY=0.5;entryDx=0;entryDy=0;exitX=0.811;exitY=0.259;exitDx=0;exitDy=0;exitPerimeter=0;" edge="1" parent="4_jwAogag72ptFIWXUfj-3" source="4_jwAogag72ptFIWXUfj-57" target="4_jwAogag72ptFIWXUfj-59">
          <mxGeometry width="50" height="50" relative="1" as="geometry">
            <mxPoint x="-40" y="555" as="sourcePoint" />
            <mxPoint x="10" y="505" as="targetPoint" />
          </mxGeometry>
        </mxCell>
        <mxCell id="4_jwAogag72ptFIWXUfj-62" value="" style="endArrow=classic;html=1;rounded=0;exitX=1;exitY=0.5;exitDx=0;exitDy=0;entryX=0.498;entryY=0.745;entryDx=0;entryDy=0;entryPerimeter=0;" edge="1" parent="4_jwAogag72ptFIWXUfj-3" target="4_jwAogag72ptFIWXUfj-57">
          <mxGeometry width="50" height="50" relative="1" as="geometry">
            <mxPoint x="-25" y="595" as="sourcePoint" />
            <mxPoint x="-190" y="515" as="targetPoint" />
          </mxGeometry>
        </mxCell>
        <mxCell id="4_jwAogag72ptFIWXUfj-64" value="Menampilkan tombol hapus" style="rounded=1;whiteSpace=wrap;html=1;arcSize=40;fontColor=#000000;fillColor=default;strokeColor=default;" vertex="1" parent="4_jwAogag72ptFIWXUfj-3">
          <mxGeometry x="60" y="680" width="100" height="40" as="geometry" />
        </mxCell>
        <mxCell id="4_jwAogag72ptFIWXUfj-71" value="" style="edgeStyle=orthogonalEdgeStyle;rounded=0;orthogonalLoop=1;jettySize=auto;html=1;" edge="1" parent="4_jwAogag72ptFIWXUfj-3" source="4_jwAogag72ptFIWXUfj-68" target="4_jwAogag72ptFIWXUfj-70">
          <mxGeometry relative="1" as="geometry" />
        </mxCell>
        <mxCell id="4_jwAogag72ptFIWXUfj-68" value="Menghapus data grouping produk" style="rounded=1;whiteSpace=wrap;html=1;arcSize=40;fontColor=#000000;fillColor=default;strokeColor=default;" vertex="1" parent="4_jwAogag72ptFIWXUfj-3">
          <mxGeometry x="60" y="750" width="100" height="40" as="geometry" />
        </mxCell>
        <mxCell id="4_jwAogag72ptFIWXUfj-73" value="" style="edgeStyle=orthogonalEdgeStyle;rounded=0;orthogonalLoop=1;jettySize=auto;html=1;" edge="1" parent="4_jwAogag72ptFIWXUfj-3" source="4_jwAogag72ptFIWXUfj-70" target="4_jwAogag72ptFIWXUfj-72">
          <mxGeometry relative="1" as="geometry" />
        </mxCell>
        <mxCell id="4_jwAogag72ptFIWXUfj-70" value="Menampilkan notif berhasil hapus data" style="rounded=1;whiteSpace=wrap;html=1;arcSize=40;fontColor=#000000;fillColor=default;strokeColor=default;" vertex="1" parent="4_jwAogag72ptFIWXUfj-3">
          <mxGeometry x="65" y="810" width="90" height="40" as="geometry" />
        </mxCell>
        <mxCell id="4_jwAogag72ptFIWXUfj-72" value="" style="ellipse;html=1;shape=endState;fillColor=#000000;strokeColor=#ff0000;" vertex="1" parent="4_jwAogag72ptFIWXUfj-3">
          <mxGeometry x="95" y="890" width="30" height="30" as="geometry" />
        </mxCell>
        <mxCell id="4_jwAogag72ptFIWXUfj-12" style="edgeStyle=orthogonalEdgeStyle;rounded=0;orthogonalLoop=1;jettySize=auto;html=1;entryX=0;entryY=0.5;entryDx=0;entryDy=0;" edge="1" parent="4_jwAogag72ptFIWXUfj-1" source="4_jwAogag72ptFIWXUfj-8" target="4_jwAogag72ptFIWXUfj-11">
          <mxGeometry relative="1" as="geometry" />
        </mxCell>
        <mxCell id="4_jwAogag72ptFIWXUfj-25" value="" style="edgeStyle=orthogonalEdgeStyle;rounded=0;orthogonalLoop=1;jettySize=auto;html=1;" edge="1" parent="4_jwAogag72ptFIWXUfj-1" source="4_jwAogag72ptFIWXUfj-13" target="4_jwAogag72ptFIWXUfj-24">
          <mxGeometry relative="1" as="geometry" />
        </mxCell>
        <mxCell id="4_jwAogag72ptFIWXUfj-34" style="edgeStyle=orthogonalEdgeStyle;rounded=0;orthogonalLoop=1;jettySize=auto;html=1;entryX=1;entryY=0.5;entryDx=0;entryDy=0;" edge="1" parent="4_jwAogag72ptFIWXUfj-1" source="4_jwAogag72ptFIWXUfj-28" target="4_jwAogag72ptFIWXUfj-11">
          <mxGeometry relative="1" as="geometry">
            <Array as="points">
              <mxPoint x="230" y="430" />
              <mxPoint x="595" y="430" />
              <mxPoint x="595" y="115" />
            </Array>
          </mxGeometry>
        </mxCell>
        <mxCell id="4_jwAogag72ptFIWXUfj-42" value="" style="endArrow=classic;html=1;rounded=0;exitX=1;exitY=0.5;exitDx=0;exitDy=0;entryX=0.498;entryY=0.745;entryDx=0;entryDy=0;entryPerimeter=0;" edge="1" parent="4_jwAogag72ptFIWXUfj-1" source="4_jwAogag72ptFIWXUfj-29" target="4_jwAogag72ptFIWXUfj-35">
          <mxGeometry width="50" height="50" relative="1" as="geometry">
            <mxPoint x="170" y="320" as="sourcePoint" />
            <mxPoint x="220" y="270" as="targetPoint" />
          </mxGeometry>
        </mxCell>
        <mxCell id="4_jwAogag72ptFIWXUfj-46" style="edgeStyle=orthogonalEdgeStyle;rounded=0;orthogonalLoop=1;jettySize=auto;html=1;" edge="1" parent="4_jwAogag72ptFIWXUfj-1" source="4_jwAogag72ptFIWXUfj-14" target="4_jwAogag72ptFIWXUfj-45">
          <mxGeometry relative="1" as="geometry">
            <Array as="points">
              <mxPoint x="165" y="465" />
            </Array>
          </mxGeometry>
        </mxCell>
        <mxCell id="4_jwAogag72ptFIWXUfj-47" style="edgeStyle=orthogonalEdgeStyle;rounded=0;orthogonalLoop=1;jettySize=auto;html=1;" edge="1" parent="4_jwAogag72ptFIWXUfj-1" source="4_jwAogag72ptFIWXUfj-24" target="4_jwAogag72ptFIWXUfj-26">
          <mxGeometry relative="1" as="geometry">
            <Array as="points">
              <mxPoint x="522" y="240" />
              <mxPoint x="275" y="240" />
            </Array>
          </mxGeometry>
        </mxCell>
        <mxCell id="4_jwAogag72ptFIWXUfj-49" style="edgeStyle=orthogonalEdgeStyle;rounded=0;orthogonalLoop=1;jettySize=auto;html=1;" edge="1" parent="4_jwAogag72ptFIWXUfj-1" source="4_jwAogag72ptFIWXUfj-45" target="4_jwAogag72ptFIWXUfj-48">
          <mxGeometry relative="1" as="geometry">
            <Array as="points">
              <mxPoint x="523" y="500" />
              <mxPoint x="273" y="500" />
            </Array>
          </mxGeometry>
        </mxCell>
        <mxCell id="4_jwAogag72ptFIWXUfj-56" style="edgeStyle=orthogonalEdgeStyle;rounded=0;orthogonalLoop=1;jettySize=auto;html=1;entryX=1;entryY=0.5;entryDx=0;entryDy=0;" edge="1" parent="4_jwAogag72ptFIWXUfj-1" source="4_jwAogag72ptFIWXUfj-50" target="4_jwAogag72ptFIWXUfj-11">
          <mxGeometry relative="1" as="geometry">
            <Array as="points">
              <mxPoint x="230" y="680" />
              <mxPoint x="595" y="680" />
              <mxPoint x="595" y="115" />
            </Array>
          </mxGeometry>
        </mxCell>
        <mxCell id="4_jwAogag72ptFIWXUfj-65" style="edgeStyle=orthogonalEdgeStyle;rounded=0;orthogonalLoop=1;jettySize=auto;html=1;entryX=0;entryY=0.5;entryDx=0;entryDy=0;" edge="1" parent="4_jwAogag72ptFIWXUfj-1" source="4_jwAogag72ptFIWXUfj-15" target="4_jwAogag72ptFIWXUfj-64">
          <mxGeometry relative="1" as="geometry">
            <Array as="points">
              <mxPoint x="60" y="720" />
            </Array>
          </mxGeometry>
        </mxCell>
        <mxCell id="4_jwAogag72ptFIWXUfj-67" style="edgeStyle=orthogonalEdgeStyle;rounded=0;orthogonalLoop=1;jettySize=auto;html=1;entryX=0.5;entryY=0;entryDx=0;entryDy=0;" edge="1" parent="4_jwAogag72ptFIWXUfj-1" source="4_jwAogag72ptFIWXUfj-64" target="4_jwAogag72ptFIWXUfj-66">
          <mxGeometry relative="1" as="geometry">
            <Array as="points">
              <mxPoint x="520" y="750" />
              <mxPoint x="335" y="750" />
            </Array>
          </mxGeometry>
        </mxCell>
        <mxCell id="4_jwAogag72ptFIWXUfj-69" value="" style="edgeStyle=orthogonalEdgeStyle;rounded=0;orthogonalLoop=1;jettySize=auto;html=1;" edge="1" parent="4_jwAogag72ptFIWXUfj-1" source="4_jwAogag72ptFIWXUfj-66" target="4_jwAogag72ptFIWXUfj-68">
          <mxGeometry relative="1" as="geometry" />
        </mxCell>
        <mxCell id="4_jwAogag72ptFIWXUfj-17" value="" style="endArrow=none;html=1;rounded=0;entryX=0.476;entryY=0.985;entryDx=0;entryDy=0;entryPerimeter=0;" edge="1" parent="1" target="4_jwAogag72ptFIWXUfj-11">
          <mxGeometry width="50" height="50" relative="1" as="geometry">
            <mxPoint x="580" y="190" as="sourcePoint" />
            <mxPoint x="370" y="270" as="targetPoint" />
          </mxGeometry>
        </mxCell>
        <mxCell id="4_jwAogag72ptFIWXUfj-18" value="" style="endArrow=none;html=1;rounded=0;" edge="1" parent="1">
          <mxGeometry width="50" height="50" relative="1" as="geometry">
            <mxPoint x="230" y="190" as="sourcePoint" />
            <mxPoint x="580" y="190" as="targetPoint" />
          </mxGeometry>
        </mxCell>
        <mxCell id="4_jwAogag72ptFIWXUfj-19" value="" style="endArrow=none;html=1;rounded=0;" edge="1" parent="1">
          <mxGeometry width="50" height="50" relative="1" as="geometry">
            <mxPoint x="120" y="210" as="sourcePoint" />
            <mxPoint x="340" y="210" as="targetPoint" />
          </mxGeometry>
        </mxCell>
        <mxCell id="4_jwAogag72ptFIWXUfj-20" value="" style="endArrow=none;html=1;rounded=0;" edge="1" parent="1">
          <mxGeometry width="50" height="50" relative="1" as="geometry">
            <mxPoint x="230" y="190" as="sourcePoint" />
            <mxPoint x="230" y="210" as="targetPoint" />
          </mxGeometry>
        </mxCell>
        <mxCell id="4_jwAogag72ptFIWXUfj-21" value="" style="endArrow=classic;html=1;rounded=0;entryX=0.5;entryY=0;entryDx=0;entryDy=0;" edge="1" parent="1" target="4_jwAogag72ptFIWXUfj-15">
          <mxGeometry width="50" height="50" relative="1" as="geometry">
            <mxPoint x="120" y="210" as="sourcePoint" />
            <mxPoint x="380" y="100" as="targetPoint" />
          </mxGeometry>
        </mxCell>
        <mxCell id="4_jwAogag72ptFIWXUfj-22" value="" style="endArrow=classic;html=1;rounded=0;" edge="1" parent="1">
          <mxGeometry width="50" height="50" relative="1" as="geometry">
            <mxPoint x="230" y="210" as="sourcePoint" />
            <mxPoint x="230" y="230" as="targetPoint" />
          </mxGeometry>
        </mxCell>
        <mxCell id="4_jwAogag72ptFIWXUfj-23" value="" style="endArrow=classic;html=1;rounded=0;" edge="1" parent="1">
          <mxGeometry width="50" height="50" relative="1" as="geometry">
            <mxPoint x="340" y="210" as="sourcePoint" />
            <mxPoint x="340" y="230" as="targetPoint" />
          </mxGeometry>
        </mxCell>
        <mxCell id="4_jwAogag72ptFIWXUfj-30" value="" style="endArrow=none;html=1;rounded=0;exitX=0.5;exitY=1;exitDx=0;exitDy=0;" edge="1" parent="1" source="4_jwAogag72ptFIWXUfj-26">
          <mxGeometry width="50" height="50" relative="1" as="geometry">
            <mxPoint x="260" y="270" as="sourcePoint" />
            <mxPoint x="335" y="350" as="targetPoint" />
          </mxGeometry>
        </mxCell>
        <mxCell id="4_jwAogag72ptFIWXUfj-31" value="" style="endArrow=none;html=1;rounded=0;" edge="1" parent="1">
          <mxGeometry width="50" height="50" relative="1" as="geometry">
            <mxPoint x="290" y="350" as="sourcePoint" />
            <mxPoint x="390" y="350" as="targetPoint" />
          </mxGeometry>
        </mxCell>
        <mxCell id="4_jwAogag72ptFIWXUfj-32" value="" style="endArrow=classic;html=1;rounded=0;entryX=0.5;entryY=0;entryDx=0;entryDy=0;" edge="1" parent="1" target="4_jwAogag72ptFIWXUfj-28">
          <mxGeometry width="50" height="50" relative="1" as="geometry">
            <mxPoint x="290" y="350" as="sourcePoint" />
            <mxPoint x="360" y="290" as="targetPoint" />
          </mxGeometry>
        </mxCell>
        <mxCell id="4_jwAogag72ptFIWXUfj-33" value="" style="endArrow=classic;html=1;rounded=0;entryX=0.45;entryY=0.035;entryDx=0;entryDy=0;entryPerimeter=0;" edge="1" parent="1" target="4_jwAogag72ptFIWXUfj-29">
          <mxGeometry width="50" height="50" relative="1" as="geometry">
            <mxPoint x="390" y="350" as="sourcePoint" />
            <mxPoint x="360" y="290" as="targetPoint" />
          </mxGeometry>
        </mxCell>
      </root>
    </mxGraphModel>
  </diagram>
</mxfile>
